<svg xmlns="http://www.w3.org/2000/svg" viewBox="0 0 166.41 159.69"><defs><style>.cls-1{fill:none;stroke:#f8b8b1;stroke-linecap:round;stroke-linejoin:round;stroke-width:3px;}.cls-2{fill:#f8b8b1;}</style></defs><g id="Layer_2" data-name="Layer 2"><g id="OBJECTS"><path class="cls-1" d="M90.87,1.5,83.2,12,75.54,1.5S28.86,18.61,83.2,73.26C137.55,18.61,90.87,1.5,90.87,1.5Z"/><path class="cls-1" d="M90.71,93.27c-15.79,75.44,32.67,64.35,32.67,64.35l.71-13,12.15,4.62S166.05,109.49,90.71,93.27Z"/><path class="cls-1" d="M75.7,93.27c-75.35,16.22-45.53,56-45.53,56l12.14-4.62.71,13S91.49,168.71,75.7,93.27Z"/><path class="cls-1" d="M153,66.84l8.56-9.77s-26.93-41.8-68.34,23.2c65.23,41.05,71.7-8.25,71.7-8.25Z"/><path class="cls-1" d="M4.86,57.07l8.55,9.77L1.5,72S8,121.32,73.2,80.27C31.78,15.27,4.86,57.07,4.86,57.07Z"/><line class="cls-1" x1="83.2" y1="83.27" x2="83.2" y2="43.84"/><path class="cls-2" d="M89.83,43.84a6.63,6.63,0,1,0-6.63,6.63A6.63,6.63,0,0,0,89.83,43.84Z"/><line class="cls-1" x1="83.2" y1="83.27" x2="120.97" y2="71.94"/><path class="cls-2" d="M122.87,78.29a6.63,6.63,0,1,0-8.25-4.45A6.64,6.64,0,0,0,122.87,78.29Z"/><line class="cls-1" x1="83.2" y1="83.27" x2="106.86" y2="114.81"/><path class="cls-2" d="M101.56,118.79a6.63,6.63,0,1,0,1.32-9.28A6.62,6.62,0,0,0,101.56,118.79Z"/><line class="cls-1" x1="83.2" y1="83.27" x2="59.55" y2="114.81"/><path class="cls-2" d="M54.25,110.84a6.63,6.63,0,1,0,9.28-1.33A6.63,6.63,0,0,0,54.25,110.84Z"/><line class="cls-1" x1="83.2" y1="83.27" x2="45.44" y2="71.94"/><path class="cls-2" d="M47.34,65.59a6.63,6.63,0,1,0,4.44,8.25A6.63,6.63,0,0,0,47.34,65.59Z"/></g></g></svg>