<svg xmlns="http://www.w3.org/2000/svg" viewBox="0 0 163.41 156.69"><defs><style>.cls-1{fill:#f8b8b1;}.cls-2{fill:#f7e9df;}</style></defs><g id="Layer_2" data-name="Layer 2"><g id="OBJECTS"><path class="cls-1" d="M89.37,0,81.7,10.49,74,0S27.36,17.11,81.7,71.76C136.05,17.11,89.37,0,89.37,0Z"/><path class="cls-2" d="M81.15,71.76s-.15-.69-.42-1.9c-.14-.61-.29-1.34-.46-2.19s-.37-1.79-.56-2.83c-.38-2.07-.83-4.5-1.26-7.09s-.8-5.37-1.15-8.13c-.17-1.39-.46-2.77-.76-4.14a21.9,21.9,0,0,1-.57-4,17,17,0,0,1,.39-3.74,25.88,25.88,0,0,1,.93-3.35,22.11,22.11,0,0,1,1.19-2.83,20.79,20.79,0,0,1,1.25-2.19,17,17,0,0,1,1-1.4c.26-.33.42-.5.42-.5h1.1a5.29,5.29,0,0,1,.42.5,16.73,16.73,0,0,1,1,1.4,22.73,22.73,0,0,1,1.25,2.19,22.11,22.11,0,0,1,1.19,2.83,25.88,25.88,0,0,1,.93,3.35,16.37,16.37,0,0,1,.38,3.74,20.29,20.29,0,0,1-.57,4c-.29,1.37-.58,2.75-.76,4.14-.34,2.76-.72,5.53-1.15,8.13s-.88,5-1.26,7.09c-.18,1-.39,2-.55,2.83s-.32,1.58-.46,2.19c-.27,1.21-.43,1.9-.43,1.9Z"/><path class="cls-1" d="M151.49,65.34l8.56-9.77s-26.92-41.8-68.34,23.2c65.23,41.05,71.7-8.25,71.7-8.25Z"/><path class="cls-2" d="M91.59,78.23l1.76-.83c.56-.27,1.24-.58,2-.93s1.67-.76,2.64-1.17c1.94-.83,4.2-1.8,6.64-2.79s5-2,7.68-2.92c1.31-.48,2.59-1.06,3.86-1.65A20.8,20.8,0,0,1,120,66.5a16.21,16.21,0,0,1,3.74-.46,27.62,27.62,0,0,1,3.47.17,24.27,24.27,0,0,1,3,.54,22,22,0,0,1,2.41.74,13.87,13.87,0,0,1,1.59.67l.58.29.24,1.08s-.13.19-.39.52-.65.77-1.15,1.29a21.94,21.94,0,0,1-1.86,1.7,24.16,24.16,0,0,1-2.5,1.79,25.19,25.19,0,0,1-3.06,1.64,16.39,16.39,0,0,1-3.56,1.2,20.37,20.37,0,0,1-4,.33c-1.4,0-2.81,0-4.2.17-2.78.28-5.56.52-8.18.68s-5.09.25-7.2.34c-1.06,0-2,0-2.89.08l-2.23,0h-2Z"/><path class="cls-1" d="M89.21,91.77c-15.79,75.44,32.67,64.35,32.67,64.35l.72-13,12.14,4.62S164.55,108,89.21,91.77Z"/><path class="cls-2" d="M89.68,91.47s.52.48,1.42,1.34c.45.42,1,1,1.6,1.55s1.31,1.28,2,2c1.47,1.51,3.2,3.27,5,5.18s3.67,4,5.5,6.1c.92,1,1.93,2,2.94,3a20.94,20.94,0,0,1,2.71,3,15.9,15.9,0,0,1,1.77,3.32,26.14,26.14,0,0,1,1.11,3.3,23.41,23.41,0,0,1,.59,3,20.23,20.23,0,0,1,.18,2.51,17.25,17.25,0,0,1,0,1.73c0,.41-.07.65-.07.65l-.91.61a6.25,6.25,0,0,1-.63-.18,16.38,16.38,0,0,1-1.62-.6,21.3,21.3,0,0,1-2.26-1.12,22.84,22.84,0,0,1-2.57-1.68,24.42,24.42,0,0,1-2.64-2.26,15.54,15.54,0,0,1-2.41-2.89,21.08,21.08,0,0,1-1.77-3.63c-.51-1.3-1-2.61-1.67-3.85-1.27-2.49-2.5-5-3.6-7.39s-2.07-4.65-2.92-6.59c-.42-1-.78-1.87-1.12-2.66s-.61-1.48-.84-2.06l-.71-1.82Z"/><path class="cls-1" d="M74.2,91.77c-75.35,16.22-45.53,56-45.53,56l12.14-4.62.71,13S90,167.21,74.2,91.77Z"/><path class="cls-2" d="M74.14,92.06s-.22.67-.62,1.85c-.19.59-.44,1.3-.73,2.11s-.6,1.73-1,2.71c-.74,2-1.6,4.29-2.57,6.73s-2.07,5-3.2,7.57c-.56,1.27-1,2.61-1.47,3.93A20.78,20.78,0,0,1,63,120.68a17.32,17.32,0,0,1-2.25,3,25.45,25.45,0,0,1-2.53,2.39,22.92,22.92,0,0,1-2.48,1.82,23.72,23.72,0,0,1-2.19,1.23,15.48,15.48,0,0,1-1.59.68l-.61.22-1-.57s0-.23-.1-.64a15,15,0,0,1-.14-1.72,22,22,0,0,1,.05-2.52,26,26,0,0,1,1.37-6.4,16.08,16.08,0,0,1,1.59-3.4,21.66,21.66,0,0,1,2.55-3.14c1-1,1.92-2.05,2.78-3.15,1.72-2.2,3.47-4.38,5.17-6.38S67,98.27,68.4,96.68c.69-.79,1.36-1.5,1.94-2.14s1.08-1.19,1.51-1.64l1.35-1.41Z"/><path class="cls-1" d="M3.36,55.57l8.55,9.77L0,70.52s6.47,49.3,71.7,8.25C30.28,13.77,3.36,55.57,3.36,55.57Z"/><path class="cls-2" d="M71.57,79.32H69.62c-.62,0-1.37,0-2.23,0s-1.83,0-2.88-.08c-2.11-.09-4.57-.18-7.2-.34s-5.41-.4-8.19-.68C47.74,78,46.32,78,44.93,78a21.85,21.85,0,0,1-4-.33,16.76,16.76,0,0,1-3.56-1.21,24.63,24.63,0,0,1-3.07-1.65A21.33,21.33,0,0,1,31.78,73a20.38,20.38,0,0,1-1.86-1.7c-.5-.52-.89-1-1.15-1.29s-.39-.52-.39-.52l.24-1.07s.21-.12.58-.3.92-.42,1.6-.67a19.34,19.34,0,0,1,2.4-.73,21.34,21.34,0,0,1,3-.54A27.69,27.69,0,0,1,39.71,66a16.76,16.76,0,0,1,3.73.46,20.8,20.8,0,0,1,3.77,1.44c1.27.59,2.55,1.18,3.86,1.66,2.63,1,5.24,1.93,7.68,2.92s4.7,2,6.64,2.8c1,.41,1.85.82,2.64,1.17s1.47.66,2,.93l1.76.84Z"/><path class="cls-1" d="M86.65,82.24a5,5,0,1,0-5,4.94A4.94,4.94,0,0,0,86.65,82.24Z"/></g></g></svg>